<svg xmlns="http://www.w3.org/2000/svg" viewBox="0 0 108 108" width="108" height="108" role="img" aria-label="AutoGuard icon">
  <defs>
    <linearGradient id="ag-bg" x1="0" y1="0" x2="108" y2="108" gradientUnits="userSpaceOnUse">
      <stop offset="0" stop-color="#3FF0B0"/>
      <stop offset="0.55" stop-color="#10B074"/>
      <stop offset="1" stop-color="#0C8F5E"/>
    </linearGradient>
    <radialGradient id="ag-hi" cx="54" cy="8.64" r="66.96" gradientUnits="userSpaceOnUse">
      <stop offset="0" stop-color="#FFFFFF" stop-opacity="0.22"/>
      <stop offset="1" stop-color="#FFFFFF" stop-opacity="0"/>
    </radialGradient>
    <clipPath id="ag-clip"><rect width="108" height="108" rx="24"/></clipPath>
  </defs>
  <g clip-path="url(#ag-clip)">
    <rect width="108" height="108" fill="url(#ag-bg)"/>
    <rect width="108" height="108" fill="url(#ag-hi)"/>
    <g transform="translate(24.3 20.25) scale(0.55)">
      <path fill="#08130E" d="M60,14 L22,28 V58 C22,86 40,103 60,111 C80,103 98,86 98,58 V28 Z"/>
      <path fill="none" stroke="#FFFFFF" stroke-opacity="0.10" stroke-width="1.5" d="M60,14 L22,28 V58 C22,86 40,103 60,111 C80,103 98,86 98,58 V28 Z"/>
      <path fill="#43EEB0" d="M54,62 A12,12 0 1 1 66,62 L69,82 L51,82 Z"/>
    </g>
  </g>
</svg>
